<?xml version="1.0" encoding="UTF-8" standalone="no"?>
<!-- Created with Inkscape (http://www.inkscape.org/) -->

<svg
   width="29.492231mm"
   height="29.492226mm"
   viewBox="0 0 29.492231 29.492226"
   version="1.1"
   id="svg1"
   xml:space="preserve"
   xmlns="http://www.w3.org/2000/svg"><defs
     id="defs1" /><g
     id="layer1"
     transform="translate(-70.98284,-182.43195)"><rect
       style="display:none;fill:#f5f3e7;fill-opacity:1;fill-rule:evenodd;stroke-width:0.107806"
       id="rect3"
       width="29.492233"
       height="29.492233"
       x="70.982841"
       y="182.43193"
       ry="10.355613" /></g><g
     id="layer2"
     transform="translate(-70.98284,-182.43195)"><path
       style="fill:#5cb85c;fill-opacity:1;fill-rule:evenodd;stroke:none;stroke-width:0.200282"
       d="m 86.187636,207.43111 2.385118,-8.00522 2.878663,2.24882 c 0,0 5.929631,-7.80781 1.703299,-10.62511 -4.629398,-3.08598 -6.816996,-5.58377 -6.816996,-5.58377 0,0 3.980164,-2.5769 11.147266,2.46265 7.664044,5.38898 -4.118681,15.84944 -4.118681,15.84944 0,0 1.318886,1.54373 2.828319,2.5213"
       id="path4-1" /><path
       style="fill:#d9534f;fill-opacity:1;fill-rule:evenodd;stroke:none;stroke-width:0.16491"
       d="m 85.686027,184.77769 -3.783777,8.76615 -2.475476,-3.35509 c 0,0 -8.357409,9.09831 -3.080467,11.90108 3.190058,1.69438 10.319103,0.0131 10.319103,0.0131 0,0 -0.369564,1.96242 -3.613893,4.39747 -3.325015,2.49562 -9.646184,0.50513 -10.973767,-2.10768 -3.594505,-7.07439 5.477963,-16.65269 5.477963,-16.65269 0,0 -0.05106,-0.7814 -1.46951,-2.84423"
       id="path4-7-3" /></g></svg>
